<svg width="190" height="59" viewBox="0 0 190 59" fill="none" xmlns="http://www.w3.org/2000/svg">
<path d="M172.223 27.0743C171.941 27.2723 171.772 27.5964 171.772 27.9446V36.6832C171.772 37.2714 172.247 37.7455 172.835 37.7455C173.423 37.7455 173.897 37.2714 173.897 36.6832V28.4967L183.182 21.9967C183.5 22.1588 183.854 22.2548 184.238 22.2548C185.499 22.2548 186.519 21.2345 186.519 19.9741C186.519 18.7137 185.499 17.6934 184.238 17.6934C182.978 17.6934 181.958 18.7137 181.958 19.9741C181.958 20.0701 181.964 20.1602 181.976 20.2562L172.229 27.0803L172.223 27.0743Z" fill="url(#paint0_linear_79_1969)"/>
<path d="M165.633 24.7516V33.4542C164.906 33.8383 164.414 34.5946 164.414 35.4768C164.414 36.7372 165.435 37.7575 166.695 37.7575C167.955 37.7575 168.976 36.7372 168.976 35.4768C168.976 34.6006 168.478 33.8383 167.751 33.4542V25.3037L181.478 15.6948C181.76 15.4967 181.928 15.1726 181.928 14.8245V8.33656C181.928 7.74838 181.454 7.27423 180.865 7.27423C180.277 7.27423 179.803 7.74838 179.803 8.33656V14.2724L166.077 23.8813C165.795 24.0794 165.627 24.4035 165.627 24.7516H165.633Z" fill="url(#paint1_linear_79_1969)"/>
<path d="M182.09 27.6624L178.585 30.1172C178.105 30.4533 177.991 31.1135 178.327 31.5936C178.531 31.8877 178.861 32.0438 179.197 32.0438C179.407 32.0438 179.617 31.9838 179.803 31.8517L183.308 29.397C183.788 29.0609 183.902 28.4007 183.566 27.9205C183.23 27.4404 182.57 27.3263 182.09 27.6624Z" fill="url(#paint2_linear_79_1969)"/>
<path d="M188.782 33.8324C188.44 33.3462 187.767 33.2262 187.275 33.5683L170.71 45.1638L154.145 33.5683C153.659 33.2262 152.981 33.3462 152.639 33.8324C152.297 34.3245 152.417 34.9967 152.903 35.3388L168.82 46.4842L164.156 49.7492C163.838 49.5872 163.478 49.4911 163.094 49.4911C161.81 49.4911 160.771 50.5295 160.771 51.8138C160.771 53.0982 161.81 54.1366 163.094 54.1366C164.378 54.1366 165.417 53.0982 165.417 51.8138C165.417 51.7178 165.411 51.6158 165.399 51.5198L170.71 47.8046L176.022 51.5198C176.01 51.6158 176.004 51.7118 176.004 51.8138C176.004 53.0982 177.042 54.1366 178.327 54.1366C179.611 54.1366 180.649 53.0982 180.649 51.8138C180.649 50.5295 179.611 49.4911 178.327 49.4911C177.942 49.4911 177.582 49.5872 177.264 49.7492L172.601 46.4842L188.518 35.3388C189.004 34.9967 189.124 34.3245 188.782 33.8324Z" fill="url(#paint3_linear_79_1969)"/>
<path d="M159.331 8.71465L162.836 6.2599C163.316 5.9238 163.43 5.2636 163.094 4.78345C162.89 4.48936 162.56 4.33331 162.224 4.33331C162.013 4.33331 161.803 4.39333 161.617 4.52537L158.112 6.98012C157.632 7.31622 157.518 7.97643 157.854 8.45657C158.19 8.93672 158.851 9.05075 159.331 8.71465Z" fill="url(#paint4_linear_79_1969)"/>
<path d="M173.669 5.23361V11.0734L159.943 20.6823C159.661 20.8804 159.493 21.2045 159.493 21.5526V28.0406C159.493 28.6288 159.967 29.1029 160.555 29.1029C161.143 29.1029 161.617 28.6288 161.617 28.0406V22.1048L175.344 12.4958C175.626 12.2978 175.794 11.9737 175.794 11.6256V5.23361C176.52 4.84949 177.012 4.09326 177.012 3.21099C177.012 1.95061 175.992 0.930298 174.731 0.930298C173.471 0.930298 172.451 1.95061 172.451 3.21099C172.451 4.08726 172.949 4.84949 173.675 5.23361H173.669Z" fill="url(#paint5_linear_79_1969)"/>
<path d="M157.188 18.6897C158.448 18.6897 159.469 17.6694 159.469 16.409C159.469 16.313 159.463 16.223 159.451 16.127L169.198 9.30287C169.48 9.10481 169.648 8.78071 169.648 8.43261V2.00465C169.648 1.41647 169.174 0.942322 168.586 0.942322C167.997 0.942322 167.523 1.41647 167.523 2.00465V7.88044L158.238 14.3864C157.92 14.2244 157.566 14.1283 157.182 14.1283C155.922 14.1283 154.901 15.1487 154.901 16.409C154.901 17.6694 155.922 18.6897 157.182 18.6897H157.188Z" fill="url(#paint6_linear_79_1969)"/>
<path d="M38.8379 19.836V9.85498H42.1749C43.6874 9.85498 44.8937 10.2991 45.788 11.1874C46.6883 12.0757 47.1384 13.288 47.1384 14.8185C47.1384 16.349 46.6883 17.5913 45.782 18.4916C44.8757 19.3919 43.6754 19.842 42.1749 19.842H38.8379V19.836ZM42.1209 11.5955H40.8785V18.0955H42.1209C44.0595 18.0955 45.0318 17.0032 45.0318 14.8185C45.0318 12.6338 44.0595 11.5955 42.1209 11.5955Z" fill="#2D2766"/>
<path d="M49.6052 11.5835C49.2451 11.5835 48.963 11.4815 48.7649 11.2834C48.5669 11.0854 48.4648 10.8153 48.4648 10.4852C48.4648 10.1551 48.5669 9.88499 48.7649 9.68693C48.963 9.48887 49.2451 9.38684 49.6052 9.38684C49.9653 9.38684 50.2354 9.48887 50.4334 9.68693C50.6315 9.88499 50.7335 10.1551 50.7335 10.4852C50.7335 10.8153 50.6315 11.0854 50.4334 11.2834C50.2354 11.4815 49.9593 11.5835 49.6052 11.5835ZM50.5895 12.5558V19.842H48.6209V12.5558H50.5895Z" fill="#2D2766"/>
<path d="M55.1809 22.5488C54.2386 22.5488 53.4104 22.3988 52.6842 22.1047L53.0983 20.5502C53.6865 20.7903 54.3407 20.9043 55.0669 20.9043C55.6251 20.9043 56.0632 20.7903 56.3693 20.5622C56.6754 20.3342 56.8314 20.0041 56.8314 19.5779V19.2478C56.3813 19.4219 55.9372 19.5059 55.493 19.5059C54.4247 19.5059 53.5964 19.2118 52.9903 18.6176C52.3841 18.0235 52.084 17.1892 52.084 16.1149C52.084 14.9745 52.4381 14.0682 53.1403 13.39C53.8425 12.7178 54.7728 12.3757 55.9372 12.3757C56.9815 12.3757 57.9358 12.5678 58.788 12.9459V19.3799C58.788 20.3762 58.4699 21.1564 57.8277 21.7086C57.1855 22.2667 56.3033 22.5428 55.1809 22.5428V22.5488ZM54.0946 15.9468C54.0946 16.547 54.2446 17.0151 54.5447 17.3573C54.8448 17.6994 55.265 17.8674 55.8051 17.8674C56.1472 17.8674 56.4893 17.7894 56.8314 17.6273V14.1643C56.5013 14.0622 56.2012 14.0082 55.9312 14.0082C55.349 14.0082 54.8988 14.1823 54.5747 14.5364C54.2506 14.8905 54.0886 15.3586 54.0886 15.9468H54.0946Z" fill="#2D2766"/>
<path d="M61.6689 11.5835C61.3088 11.5835 61.0267 11.4815 60.8287 11.2834C60.6306 11.0854 60.5286 10.8153 60.5286 10.4852C60.5286 10.1551 60.6306 9.88499 60.8287 9.68693C61.0267 9.48887 61.3088 9.38684 61.6689 9.38684C62.029 9.38684 62.2991 9.48887 62.4972 9.68693C62.6952 9.88499 62.7973 10.1551 62.7973 10.4852C62.7973 10.8153 62.6952 11.0854 62.4972 11.2834C62.2991 11.4815 62.023 11.5835 61.6689 11.5835ZM62.6532 12.5558V19.842H60.6846V12.5558H62.6532Z" fill="#2D2766"/>
<path d="M68.583 19.878C68.2409 19.9621 67.8268 20.0041 67.3406 20.0041C65.6301 20.0041 64.7719 19.0678 64.7719 17.1952V14.1163H63.7996V12.5498H64.7719V10.9653L66.7405 10.8633V12.5438H68.3249V14.1103H66.7405V17.1592C66.7405 17.9695 67.0706 18.3716 67.7248 18.3716C67.9828 18.3716 68.2349 18.3416 68.481 18.2875L68.583 19.872V19.878Z" fill="#2D2766"/>
<path d="M75.359 19.3799C74.5428 19.8 73.5045 20.0101 72.2501 20.0101C71.3078 20.0101 70.5816 19.8 70.0774 19.3919C69.5673 18.9778 69.3152 18.4376 69.3152 17.7714C69.3152 17.1052 69.5793 16.529 70.1014 16.1329C70.6236 15.7308 71.3198 15.5267 72.1841 15.5207C72.5562 15.5207 72.9763 15.5567 73.4504 15.6348V15.2927C73.4504 14.4344 72.9643 14.0083 71.998 14.0083C71.2958 14.0083 70.6656 14.1223 70.1134 14.3504L69.7593 12.8079C70.4435 12.5198 71.2658 12.3818 72.2261 12.3818C73.2644 12.3818 74.0446 12.6459 74.5728 13.168C75.101 13.6902 75.365 14.4404 75.365 15.4187V19.3859L75.359 19.3799ZM72.4481 18.5937C72.8683 18.5937 73.1984 18.5277 73.4444 18.3956V16.8711C73.0903 16.7931 72.7542 16.7571 72.4301 16.7571C71.6499 16.7571 71.2598 17.0692 71.2598 17.6814C71.2598 18.2936 71.6559 18.5937 72.4421 18.5937H72.4481Z" fill="#2D2766"/>
<path d="M79.0681 9.50085V17.2012C79.0681 17.9874 79.3261 18.3836 79.8363 18.3836C79.9863 18.3836 80.1244 18.3716 80.2504 18.3416L80.3945 19.896C80.0344 19.9741 79.6983 20.0101 79.3982 20.0101C77.8677 20.0101 77.1055 19.0858 77.1055 17.2312V9.61489L79.0741 9.50085H79.0681Z" fill="#2D2766"/>
<path d="M8.94879 36.3351C7.92848 36.8572 6.87815 37.1213 5.79782 37.1213C4.25535 37.1213 3.05499 36.6652 2.18472 35.7469C1.31446 34.8286 0.882324 33.6042 0.882324 32.0738C0.882324 30.5433 1.32646 29.2229 2.22073 28.2506C3.11501 27.2783 4.33338 26.7982 5.88785 26.7982C6.89616 26.7982 7.79643 26.9722 8.59468 27.3083L8.13854 29.0188C7.44233 28.7367 6.7041 28.5927 5.91186 28.5927C4.95157 28.5927 4.22534 28.8988 3.72719 29.511C3.23504 30.1232 2.98297 30.9754 2.98297 32.0738C2.98297 33.1001 3.22904 33.8983 3.72719 34.4685C4.21934 35.0387 4.93956 35.3268 5.88185 35.3268C6.28397 35.3268 6.6861 35.2787 7.09422 35.1827V32.974H5.45572V31.2935H8.94879V36.3411V36.3351Z" fill="#2D2766"/>
<path d="M17.3754 33.2982C17.3754 34.4565 17.0573 35.3868 16.4211 36.077C15.7849 36.7732 14.9206 37.1153 13.8283 37.1153C12.7359 37.1153 11.8657 36.7672 11.2235 36.065C10.5813 35.3688 10.2632 34.4445 10.2632 33.2922C10.2632 32.1398 10.5813 31.2215 11.2235 30.5253C11.8657 29.8291 12.7299 29.487 13.8283 29.487C14.9266 29.487 15.7849 29.8351 16.4211 30.5253C17.0573 31.2215 17.3754 32.1398 17.3754 33.2922V33.2982ZM12.2678 33.2982C12.2678 33.9824 12.4058 34.5225 12.6759 34.9067C12.946 35.2968 13.3301 35.4888 13.8223 35.4888C14.3144 35.4888 14.6985 35.2968 14.9626 34.9067C15.2267 34.5165 15.3647 33.9824 15.3647 33.2982C15.3647 32.614 15.2327 32.0798 14.9626 31.6957C14.6985 31.3116 14.3144 31.1195 13.8223 31.1195C13.3301 31.1195 12.946 31.3116 12.6759 31.7017C12.4058 32.0918 12.2678 32.626 12.2678 33.2982Z" fill="#2D2766"/>
<path d="M18.2576 29.661H20.2382C20.3702 31.7557 20.8684 33.6522 21.7386 35.3628C22.1828 34.4985 22.5369 33.6222 22.789 32.734C23.041 31.8457 23.1971 30.8194 23.2511 29.661H25.2197C25.0757 31.0894 24.8296 32.3318 24.4755 33.4062C24.1214 34.4745 23.5752 35.6568 22.837 36.9472H20.6523C19.8721 35.6328 19.3019 34.4445 18.9478 33.3821C18.5937 32.3198 18.3596 31.0774 18.2576 29.661Z" fill="#2D2766"/>
<path d="M32.35 36.6352C31.6358 36.9593 30.8075 37.1213 29.8532 37.1213C28.6949 37.1213 27.7586 36.7792 27.0504 36.089C26.3421 35.3988 25.988 34.4685 25.988 33.2982C25.988 32.1278 26.3181 31.2515 26.9723 30.5433C27.6265 29.8411 28.4788 29.487 29.5231 29.487C30.4534 29.487 31.2036 29.7871 31.7678 30.3873C32.332 30.9875 32.6141 31.7677 32.6141 32.728C32.6141 33.0701 32.5961 33.4302 32.554 33.8143H28.0467C28.2267 34.9187 28.8929 35.4708 30.0453 35.4708C30.7115 35.4708 31.3717 35.3328 32.0259 35.0567L32.338 36.6412L32.35 36.6352ZM29.5291 31.0595C29.121 31.0595 28.7849 31.1975 28.5208 31.4736C28.2567 31.7497 28.0947 32.1278 28.0287 32.614H30.7355V32.4399C30.7355 32.0318 30.6275 31.6957 30.4174 31.4436C30.2013 31.1855 29.9072 31.0595 29.5231 31.0595H29.5291Z" fill="#2D2766"/>
<path d="M34.1145 30.1172C34.9488 29.6971 35.9511 29.487 37.1094 29.487C37.6196 29.487 38.0517 29.529 38.3938 29.613L38.1117 31.2215C37.8957 31.1435 37.6136 31.1075 37.2715 31.1075C36.8273 31.1075 36.4312 31.1915 36.0891 31.3476V36.9353H34.1205V30.1052L34.1145 30.1172Z" fill="#2D2766"/>
<path d="M41.4607 36.9533H39.5042V30.1232C40.4824 29.703 41.5568 29.493 42.7271 29.493C43.7715 29.493 44.5817 29.7451 45.1519 30.2492C45.7221 30.7534 46.0101 31.4736 46.0101 32.4159V36.9533H44.0415V32.5599C44.0415 31.5996 43.5974 31.1195 42.7151 31.1195C42.247 31.1195 41.8329 31.2035 41.4607 31.3776V36.9533Z" fill="#2D2766"/>
<path d="M49.7613 31.3776V36.9533H47.8047V30.1232C48.765 29.703 49.8333 29.493 51.0157 29.493C51.8499 29.493 52.5221 29.685 53.0263 30.0752C53.8065 29.685 54.5808 29.493 55.349 29.493C56.3573 29.493 57.1315 29.7451 57.6777 30.2552C58.2239 30.7654 58.5 31.4856 58.5 32.4159V36.9533H56.5434V32.5599C56.5434 31.5996 56.1172 31.1195 55.259 31.1195C54.7848 31.1195 54.3407 31.2335 53.9326 31.4616C54.0466 31.8517 54.1066 32.2958 54.1066 32.8V36.9473H52.198V32.5539C52.198 32.0678 52.096 31.7077 51.8919 31.4676C51.6879 31.2275 51.3638 31.1135 50.9136 31.1135C50.5115 31.1135 50.1274 31.1975 49.7613 31.3716V31.3776Z" fill="#2D2766"/>
<path d="M66.2723 36.6352C65.5581 36.9593 64.7299 37.1213 63.7756 37.1213C62.6172 37.1213 61.6809 36.7792 60.9727 36.089C60.2645 35.3988 59.9104 34.4685 59.9104 33.2982C59.9104 32.1278 60.2405 31.2515 60.8947 30.5433C61.5489 29.8411 62.4012 29.487 63.4455 29.487C64.3758 29.487 65.126 29.7871 65.6902 30.3873C66.2543 30.9875 66.5364 31.7677 66.5364 32.728C66.5364 33.0701 66.5184 33.4302 66.4764 33.8143H61.969C62.1491 34.9187 62.8153 35.4708 63.9676 35.4708C64.6338 35.4708 65.294 35.3328 65.9482 35.0567L66.2603 36.6412L66.2723 36.6352ZM63.4515 31.0595C63.0434 31.0595 62.7073 31.1975 62.4432 31.4736C62.1791 31.7497 62.017 32.1278 61.951 32.614H64.6579V32.4399C64.6579 32.0318 64.5498 31.6957 64.3398 31.4436C64.1237 31.1855 63.8296 31.0595 63.4455 31.0595H63.4515Z" fill="#2D2766"/>
<path d="M69.9815 36.9533H68.0249V30.1232C69.0032 29.703 70.0775 29.493 71.2479 29.493C72.2922 29.493 73.1025 29.7451 73.6726 30.2492C74.2428 30.7534 74.5309 31.4736 74.5309 32.4159V36.9533H72.5623V32.5599C72.5623 31.5996 72.1182 31.1195 71.2359 31.1195C70.7677 31.1195 70.3536 31.2035 69.9815 31.3776V36.9533Z" fill="#2D2766"/>
<path d="M80.3645 36.9953C80.0224 37.0793 79.6083 37.1213 79.1221 37.1213C77.4116 37.1213 76.5534 36.185 76.5534 34.3125V31.2335H75.5811V29.667H76.5534V28.0826L78.522 27.9805V29.661H80.1064V31.2275H78.522V34.2765C78.522 35.0867 78.8521 35.4888 79.5063 35.4888C79.7643 35.4888 80.0164 35.4588 80.2625 35.4048L80.3645 36.9893V36.9953Z" fill="#2D2766"/>
<path d="M26.4021 54.0645L25.8019 51.8678H22.1228C21.9247 52.534 21.7207 53.2662 21.5226 54.0645H19.428C20.5683 49.8932 21.7207 46.5622 22.891 44.0834H25.0157C26.2221 46.6402 27.3804 49.9712 28.4967 54.0645H26.4021ZM23.9654 46.2501C23.6233 46.9943 23.1791 48.2847 22.627 50.1273H25.2918C24.7216 48.2187 24.2775 46.9223 23.9654 46.2501Z" fill="#2D2766"/>
<path d="M36.0411 53.6083C35.0268 54.0285 33.9405 54.2385 32.7881 54.2385C31.6358 54.2385 30.8135 53.9745 30.3214 53.4463C29.8292 52.9181 29.5771 52.1679 29.5771 51.1836V46.7783H31.5337V51.1836C31.5337 52.1319 31.9659 52.612 32.8301 52.612C33.2983 52.612 33.7124 52.528 34.0725 52.354V46.7783H36.0411V53.6083Z" fill="#2D2766"/>
<path d="M41.9468 54.1065C41.6047 54.1905 41.1906 54.2325 40.7044 54.2325C38.9939 54.2325 38.1356 53.2962 38.1356 51.4237V48.3447H37.1633V46.7783H38.1356V45.1938L40.1042 45.0917V46.7723H41.6887V48.3387H40.1042V51.3937C40.1042 52.2039 40.4343 52.606 41.0885 52.606C41.3466 52.606 41.5987 52.576 41.8448 52.522L41.9468 54.1065Z" fill="#2D2766"/>
<path d="M45.1278 54.0645H43.1592V43.8254L45.1278 43.7233V46.8863C45.5299 46.6942 46.016 46.5982 46.5982 46.5982C47.5405 46.5982 48.2847 46.8503 48.8369 47.3604C49.3891 47.8706 49.6652 48.5908 49.6652 49.5211V54.0585H47.6966V49.6831C47.6966 48.7229 47.2284 48.2427 46.2861 48.2427C45.896 48.2427 45.5119 48.3327 45.1338 48.5128V54.0585L45.1278 54.0645Z" fill="#2D2766"/>
<path d="M58.1879 50.4153C58.1879 51.5737 57.8698 52.504 57.2336 53.1942C56.5974 53.8904 55.7331 54.2325 54.6408 54.2325C53.5484 54.2325 52.6782 53.8844 52.036 53.1822C51.3938 52.48 51.0757 51.5557 51.0757 50.4093C51.0757 49.263 51.3938 48.3387 52.036 47.6425C52.6782 46.9463 53.5424 46.6042 54.6408 46.6042C55.7391 46.6042 56.5974 46.9523 57.2336 47.6425C57.8698 48.3387 58.1879 49.257 58.1879 50.4093V50.4153ZM53.0803 50.4153C53.0803 51.0996 53.2183 51.6397 53.4884 52.0238C53.7585 52.414 54.1426 52.606 54.6348 52.606C55.1269 52.606 55.511 52.414 55.7751 52.0238C56.0392 51.6337 56.1772 51.0996 56.1772 50.4153C56.1772 49.7311 56.0452 49.197 55.7751 48.8129C55.511 48.4287 55.1269 48.2367 54.6348 48.2367C54.1426 48.2367 53.7585 48.4287 53.4884 48.8189C53.2183 49.209 53.0803 49.7431 53.0803 50.4153Z" fill="#2D2766"/>
<path d="M59.6882 47.2344C60.5225 46.8142 61.5248 46.6042 62.6831 46.6042C63.1933 46.6042 63.6254 46.6462 63.9675 46.7302L63.6855 48.3387C63.4694 48.2607 63.1873 48.2247 62.8452 48.2247C62.4011 48.2247 62.0049 48.3027 61.6628 48.4648V54.0525H59.6942V47.2224L59.6882 47.2344Z" fill="#2D2766"/>
<path d="M66.0742 45.806C65.7141 45.806 65.432 45.704 65.2339 45.5059C65.0359 45.3078 64.9338 45.0377 64.9338 44.7076C64.9338 44.3775 65.0359 44.1075 65.2339 43.9094C65.432 43.7113 65.7141 43.6093 66.0742 43.6093C66.4343 43.6093 66.7044 43.7113 66.9024 43.9094C67.1005 44.1075 67.2025 44.3775 67.2025 44.7076C67.2025 45.0377 67.1005 45.3078 66.9024 45.5059C66.7044 45.704 66.4283 45.806 66.0742 45.806ZM67.0585 46.7783V54.0645H65.0899V46.7783H67.0585Z" fill="#2D2766"/>
<path d="M72.9883 54.1065C72.6462 54.1905 72.2321 54.2325 71.7459 54.2325C70.0354 54.2325 69.1771 53.2962 69.1771 51.4237V48.3447H68.2048V46.7783H69.1771V45.1938L71.1457 45.0917V46.7723H72.7302V48.3387H71.1457V51.3937C71.1457 52.2039 71.4758 52.606 72.13 52.606C72.3881 52.606 72.6402 52.576 72.8863 52.522L72.9883 54.1065Z" fill="#2D2766"/>
<path d="M78.2638 53.4343C77.1715 55.3549 75.8031 56.4472 74.1586 56.7113L73.8465 55.0428C74.2846 54.9768 74.7228 54.8147 75.1669 54.5507C75.611 54.2866 75.9351 53.9805 76.1452 53.6324C75.347 52.546 74.7468 51.4717 74.3387 50.4094C73.9365 49.3471 73.6784 48.1347 73.5764 46.7723H75.557C75.635 48.6809 76.1692 50.4694 77.1655 52.1319C77.5436 51.3217 77.8317 50.5234 78.0118 49.7312C78.1978 48.9389 78.3179 47.9486 78.3779 46.7723H80.3345C80.1604 49.071 79.4762 51.2917 78.2699 53.4343H78.2638Z" fill="#2D2766"/>
<path d="M95.483 19.9201H94.7388C93.6644 19.9201 92.9502 19.5479 92.6021 18.8097C92.128 18.8637 91.6898 18.8937 91.2877 18.8937C90.3094 18.8937 89.5352 18.7137 88.971 18.3536C88.4068 17.9935 88.1248 17.4473 88.1248 16.7151C88.1248 15.8688 88.3948 15.1186 88.935 14.4704C89.4752 13.8222 90.1774 13.33 91.0476 13.0059C91.9119 12.6818 92.8662 12.5198 93.8985 12.5198V16.6971C93.8985 17.1532 94.0006 17.4653 94.2046 17.6214C94.4087 17.7834 94.7748 17.8614 95.3089 17.8614H95.483V19.9141V19.9201ZM91.6358 17.0992C91.9179 17.0992 92.14 17.0872 92.29 17.0692V14.4764C91.5038 14.5784 90.8616 14.8125 90.3694 15.1726C89.8773 15.5327 89.6372 15.8928 89.6372 16.2409C89.6372 16.487 89.8113 16.6911 90.1534 16.8531C90.4955 17.0152 90.9876 17.0932 91.6358 17.0932V17.0992ZM92.8782 11.6795L91.7379 10.7252L90.8556 11.7216L89.6552 10.7252L90.6515 9.5729L91.7919 10.5572L92.6741 9.53088L93.8745 10.5572L92.8782 11.6855V11.6795Z" fill="#2D2766"/>
<path d="M95.4832 19.9201C95.3572 19.9201 95.2552 19.818 95.1651 19.62C95.0751 19.4219 95.0271 19.1758 95.0271 18.8937C95.0271 18.6117 95.0751 18.3656 95.1651 18.1675C95.2552 17.9695 95.3632 17.8674 95.4832 17.8674H98.8923V19.9201H95.4832Z" fill="#2D2766"/>
<path d="M98.8922 19.9201C98.7661 19.9201 98.6641 19.818 98.5741 19.62C98.4841 19.4219 98.436 19.1758 98.436 18.8937C98.436 18.6117 98.4841 18.3656 98.5741 18.1675C98.6641 17.9695 98.7721 17.8674 98.8922 17.8674H102.301V19.9201H98.8922Z" fill="#2D2766"/>
<path d="M102.301 19.9201C102.175 19.9201 102.073 19.818 101.983 19.62C101.893 19.4219 101.845 19.1758 101.845 18.8938C101.845 18.6117 101.893 18.3656 101.983 18.1675C102.073 17.9695 102.181 17.8674 102.301 17.8674H102.517C103.285 17.8674 103.796 17.7654 104.048 17.5674C104.3 17.3693 104.426 17.0752 104.426 16.6971V14.6985L106.136 14.5724V16.511C106.136 16.9192 106.106 17.2913 106.052 17.6214C106.568 17.7834 107.187 17.8614 107.907 17.8614H107.991V19.9141H107.607C106.568 19.9141 105.752 19.698 105.152 19.2599C104.618 19.698 103.802 19.9141 102.697 19.9141H102.295L102.301 19.9201ZM106.208 13.3481C105.164 13.5281 104.114 13.8222 103.057 14.2303L102.787 13.3901C103.189 13.216 103.495 13.096 103.712 13.018C103.339 12.7599 103.153 12.3758 103.153 11.8656C103.153 11.4275 103.297 11.0794 103.585 10.8273C103.874 10.5692 104.228 10.4432 104.648 10.4432C105.068 10.4432 105.434 10.5392 105.818 10.7253L105.518 11.5235C105.242 11.4395 104.984 11.3975 104.75 11.3975C104.54 11.3975 104.372 11.4455 104.234 11.5415C104.102 11.6375 104.036 11.7696 104.036 11.9436C104.036 12.1357 104.102 12.2977 104.234 12.4358C104.366 12.5738 104.564 12.6398 104.816 12.6398C105.026 12.6398 105.428 12.5798 106.028 12.4538L106.202 13.3541L106.208 13.3481Z" fill="#2D2766"/>
<path d="M107.991 19.9201C107.865 19.9201 107.763 19.818 107.673 19.62C107.583 19.4219 107.535 19.1758 107.535 18.8937C107.535 18.6117 107.583 18.3656 107.673 18.1675C107.763 17.9695 107.871 17.8674 107.991 17.8674H111.4V19.9201H107.991Z" fill="#2D2766"/>
<path d="M111.4 19.9201C111.274 19.9201 111.172 19.818 111.082 19.62C110.992 19.4219 110.944 19.1758 110.944 18.8937C110.944 18.6117 110.992 18.3656 111.082 18.1675C111.172 17.9695 111.28 17.8674 111.4 17.8674H114.809V19.9201H111.4Z" fill="#2D2766"/>
<path d="M117.378 23.1851L116.237 22.2308L115.355 23.2271L114.155 22.2308L115.151 21.0784L116.291 22.0627L117.174 21.0364L118.374 22.0627L117.378 23.1911V23.1851ZM114.809 19.9201C114.683 19.9201 114.581 19.818 114.491 19.62C114.401 19.4219 114.353 19.1759 114.353 18.8938C114.353 18.6117 114.401 18.3656 114.491 18.1675C114.581 17.9695 114.689 17.8675 114.809 17.8675H115.025C115.793 17.8675 116.303 17.7654 116.556 17.5674C116.808 17.3693 116.934 17.0752 116.934 16.6971V14.6985L118.644 14.5724V16.511C118.644 16.9192 118.614 17.2913 118.56 17.6214C119.076 17.7834 119.694 17.8615 120.415 17.8615H120.499V19.9141H120.115C119.076 19.9141 118.26 19.698 117.66 19.2599C117.126 19.698 116.309 19.9141 115.205 19.9141H114.803L114.809 19.9201Z" fill="#2D2766"/>
<path d="M120.499 19.9201C120.373 19.9201 120.271 19.818 120.181 19.62C120.091 19.4219 120.043 19.1758 120.043 18.8937C120.043 18.6117 120.091 18.3656 120.181 18.1675C120.271 17.9695 120.379 17.8674 120.499 17.8674H123.908V19.9201H120.499Z" fill="#2D2766"/>
<path d="M123.908 19.9201C123.782 19.9201 123.68 19.818 123.59 19.62C123.5 19.4219 123.452 19.1758 123.452 18.8937C123.452 18.6117 123.5 18.3656 123.59 18.1675C123.68 17.9695 123.788 17.8674 123.908 17.8674H127.317V19.9201H123.908Z" fill="#2D2766"/>
<path d="M127.317 19.9201C127.191 19.9201 127.089 19.818 126.999 19.62C126.909 19.4219 126.861 19.1758 126.861 18.8937C126.861 18.6117 126.909 18.3656 126.999 18.1675C127.089 17.9695 127.197 17.8674 127.317 17.8674H130.726V19.9201H127.317Z" fill="#2D2766"/>
<path d="M137.754 20.3762C136.44 20.3762 135.179 20.0461 133.961 19.3799C133.163 19.74 132.202 19.9201 131.08 19.9201H130.726C130.6 19.9201 130.498 19.818 130.408 19.62C130.318 19.4219 130.27 19.1758 130.27 18.8937C130.27 18.6117 130.318 18.3656 130.408 18.1675C130.498 17.9695 130.606 17.8674 130.726 17.8674H130.912C131.332 17.8674 131.764 17.8434 132.208 17.7954C131.968 17.3753 131.854 16.9371 131.854 16.469C131.854 15.1966 132.484 13.9062 133.751 12.6038C135.365 12.9159 136.722 13.5641 137.82 14.5364C138.918 15.5087 139.465 16.6311 139.465 17.8974C139.465 19.5539 138.894 20.3762 137.754 20.3762ZM133.277 16.1149C133.277 16.619 133.565 17.0512 134.135 17.4113C134.543 17.1952 134.855 16.9551 135.059 16.6971C135.269 16.439 135.371 16.2049 135.371 16.0009C135.371 15.3046 134.885 14.8365 133.919 14.5904C133.493 15.1126 133.277 15.6227 133.277 16.1149ZM137.556 18.6117C137.82 18.6117 137.958 18.4856 137.958 18.2395C137.958 17.3753 137.532 16.565 136.674 15.8148V15.8268C136.674 16.6551 136.326 17.4293 135.635 18.1495C136.464 18.4556 137.106 18.6057 137.562 18.6057L137.556 18.6117Z" fill="#2D2766"/>
<path d="M95.3751 37.0313H94.6309C93.5565 37.0313 92.8423 36.6591 92.4942 35.9209C92.0201 35.9749 91.5819 36.0049 91.1798 36.0049C90.2015 36.0049 89.4273 35.8249 88.8631 35.4648C88.2989 35.1047 88.0168 34.5585 88.0168 33.8263C88.0168 32.98 88.2869 32.2298 88.8271 31.5816C89.3673 30.9334 90.0695 30.4413 90.9397 30.1172C91.804 29.7931 92.7583 29.631 93.7906 29.631V33.8083C93.7906 34.2644 93.8926 34.5765 94.0967 34.7326C94.3008 34.8946 94.6669 34.9726 95.201 34.9726H95.3751V37.0253V37.0313ZM91.5279 34.2104C91.81 34.2104 92.0321 34.1984 92.1821 34.1804V31.5876C91.3959 31.6896 90.7537 31.9237 90.2615 32.2838C89.7694 32.6439 89.5293 33.004 89.5293 33.3521C89.5293 33.5982 89.7034 33.8023 90.0455 33.9643C90.3876 34.1264 90.8797 34.2044 91.5279 34.2044V34.2104ZM92.7703 28.7907L91.63 27.8365L90.7477 28.8328L89.5473 27.8365L90.5436 26.6841L91.684 27.6684L92.5662 26.6421L93.7666 27.6684L92.7703 28.7967V28.7907Z" fill="#2D2766"/>
<path d="M95.3751 37.0313C95.2491 37.0313 95.147 36.9292 95.057 36.7312C94.967 36.5331 94.9189 36.287 94.9189 36.005C94.9189 35.7229 94.967 35.4768 95.057 35.2787C95.147 35.0807 95.2551 34.9786 95.3751 34.9786H98.7841V37.0313H95.3751Z" fill="#2D2766"/>
<path d="M103.603 37.0433C102.463 37.0433 101.479 36.8032 100.651 36.329C100.182 36.7972 99.6003 37.0252 98.8981 37.0252H98.784C98.658 37.0252 98.5559 36.9232 98.4659 36.7252C98.3759 36.5271 98.3279 36.281 98.3279 35.9989C98.3279 35.7168 98.3759 35.4708 98.4659 35.2727C98.5559 35.0747 98.664 34.9726 98.784 34.9726H99.0241C99.3842 34.9726 99.6783 34.8406 99.9004 34.5705C100.122 34.3004 100.381 33.8743 100.681 33.2741C100.699 33.2381 100.717 33.2081 100.723 33.1901C100.729 33.1721 100.747 33.1481 100.759 33.1181C100.771 33.088 100.783 33.064 100.795 33.034C101.167 32.3198 101.563 31.7796 101.983 31.4075C102.403 31.0354 102.985 30.8494 103.718 30.8494C104.528 30.8494 105.182 31.1675 105.686 31.8037C106.19 32.4399 106.442 33.2261 106.442 34.1564C106.442 35.0867 106.28 35.9749 105.956 36.7252C105.356 36.9352 104.576 37.0373 103.603 37.0373V37.0433ZM103.934 35.1587C104.228 35.1587 104.516 35.1467 104.804 35.1167C104.84 34.8586 104.858 34.6245 104.858 34.4024C104.858 33.9103 104.756 33.5022 104.546 33.1841C104.336 32.866 104.042 32.7039 103.664 32.7039C103.309 32.7039 103.015 32.824 102.763 33.07C102.517 33.3101 102.205 33.8083 101.821 34.5585C101.755 34.6905 101.719 34.7746 101.707 34.7986C102.325 35.0386 103.069 35.1527 103.934 35.1527V35.1587Z" fill="#2D2766"/>
<path d="M109.377 40.0502C108.885 40.0502 108.363 39.9782 107.811 39.8341L107.985 38.1356C108.345 38.2016 108.729 38.2376 109.125 38.2376C109.959 38.2376 110.626 38.0876 111.124 37.7815C111.622 37.4754 111.934 37.1333 112.078 36.7552C111.67 36.8032 111.172 36.8272 110.596 36.8272C109.569 36.8272 108.849 36.5871 108.435 36.107C108.021 35.6268 107.817 34.9666 107.817 34.1324C107.817 33.1421 108.087 32.3078 108.639 31.6236C109.185 30.9394 109.875 30.5973 110.698 30.5973C111.598 30.5973 112.342 30.9874 112.93 31.7676C113.513 32.5479 113.825 33.6162 113.849 34.9786H114.677V37.0313H113.621C113.068 39.0479 111.658 40.0562 109.383 40.0562L109.377 40.0502ZM111.202 34.9726H112.228C112.198 34.3424 112.042 33.7663 111.748 33.2321C111.46 32.6979 111.07 32.4339 110.584 32.4339C110.182 32.4339 109.881 32.5779 109.671 32.86C109.461 33.1421 109.359 33.4662 109.359 33.8323C109.359 34.1984 109.497 34.4865 109.779 34.6785C110.061 34.8706 110.536 34.9726 111.196 34.9726H111.202Z" fill="#2D2766"/>
<path d="M114.665 37.0313C114.539 37.0313 114.437 36.9293 114.347 36.7312C114.257 36.5332 114.209 36.2871 114.209 36.005C114.209 35.7229 114.257 35.4768 114.347 35.2788C114.437 35.0807 114.545 34.9787 114.665 34.9787H114.935C116.543 34.9787 117.78 34.8286 118.644 34.5225C118.254 33.8743 117.798 33.3042 117.276 32.806C116.754 32.3079 116.039 31.8637 115.139 31.4736V29.1509C116.982 27.8485 119.058 26.9302 121.357 26.3961V28.3226C119.628 28.7428 118.098 29.373 116.778 30.2192C117.246 30.4653 117.66 30.7354 118.032 31.0235C118.404 31.3116 118.74 31.6357 119.046 31.9958C119.352 32.3499 119.568 32.626 119.712 32.806C119.85 32.9921 120.043 33.2742 120.289 33.6523C120.325 33.7183 120.403 33.8383 120.511 34.0064C120.619 34.1804 120.691 34.2885 120.733 34.3425C120.769 34.3965 120.835 34.4805 120.931 34.5946C121.027 34.7086 121.111 34.7806 121.183 34.8166C121.255 34.8526 121.345 34.8886 121.453 34.9247C121.561 34.9607 121.681 34.9787 121.819 34.9787H122.005V37.0313H121.777C120.895 37.0313 120.205 36.7492 119.706 36.191C118.53 36.7492 116.958 37.0313 115.001 37.0313H114.671H114.665Z" fill="#2D2766"/>
<path d="M121.999 37.0313C121.873 37.0313 121.771 36.9293 121.681 36.7312C121.591 36.5331 121.543 36.2871 121.543 36.005C121.543 35.7229 121.591 35.4768 121.681 35.2788C121.771 35.0807 121.879 34.9787 121.999 34.9787H122.539C124.766 34.9787 126.53 34.8526 127.845 34.6066C126.41 33.2381 125.432 32.5539 124.922 32.5539C124.706 32.5539 124.52 32.6019 124.382 32.704C124.244 32.806 124.088 32.9981 123.926 33.2802L122.653 32.794C122.929 32.0618 123.259 31.5336 123.638 31.2035C124.016 30.8734 124.472 30.7114 125.006 30.7114C125.726 30.7114 126.669 31.2155 127.827 32.2238C128.025 32.3979 128.535 32.854 129.351 33.6042C129.982 34.1864 130.462 34.5585 130.798 34.7206C131.134 34.8886 131.584 34.9727 132.142 34.9727H132.358V37.0253H132.058C131.518 37.0253 131.05 36.9533 130.654 36.8152C130.258 36.6772 129.85 36.4371 129.417 36.095C127.143 36.7132 124.736 37.0193 122.185 37.0193H121.987L121.999 37.0313Z" fill="#2D2766"/>
<path d="M132.364 37.0313C132.238 37.0313 132.136 36.9292 132.046 36.7312C131.956 36.5331 131.908 36.287 131.908 36.0049C131.908 35.7229 131.956 35.4768 132.046 35.2787C132.136 35.0807 132.244 34.9786 132.364 34.9786H132.478C133.037 34.9786 133.553 34.9246 134.021 34.8226C134.057 34.2224 134.075 33.4542 134.075 32.5119C134.075 31.1495 134.063 29.2649 134.033 26.8522L135.857 26.6961C135.869 29.1989 135.869 31.0354 135.869 32.2178C135.869 33.3041 135.845 34.1444 135.803 34.7506C135.761 35.3568 135.665 35.8969 135.509 36.3711C135.179 36.5511 134.723 36.7072 134.141 36.8392C133.559 36.9712 132.995 37.0373 132.442 37.0373H132.358L132.364 37.0313Z" fill="#2D2766"/>
<path d="M139.363 37.0313H137.55V26.8462L139.363 26.6901V37.0313Z" fill="#2D2766"/>
<path d="M95.6273 54.1425H94.8831C93.8087 54.1425 93.0945 53.7704 92.7464 53.0322C92.2723 53.0922 91.8341 53.1162 91.432 53.1162C90.4537 53.1162 89.6795 52.9362 89.1153 52.576C88.5511 52.2159 88.269 51.6698 88.269 50.9376C88.269 50.0913 88.5391 49.3411 89.0793 48.6929C89.6194 48.0447 90.3217 47.5525 91.1919 47.2284C92.0622 46.9043 93.0105 46.7423 94.0428 46.7423V50.9195C94.0428 51.3757 94.1448 51.6878 94.3489 51.8438C94.553 52.0059 94.9191 52.0839 95.4532 52.0839H95.6273V54.1365V54.1425ZM91.7801 51.3217C92.0622 51.3217 92.2843 51.3097 92.4343 51.2917V48.6989C91.6481 48.8009 91.0059 49.035 90.5137 49.3951C90.0216 49.7552 89.7815 50.1153 89.7815 50.4634C89.7815 50.7095 89.9556 50.9135 90.2977 51.0756C90.6398 51.2376 91.1319 51.3157 91.7801 51.3157V51.3217ZM93.0225 45.902L91.8821 44.9477L90.9999 45.944L89.7995 44.9477L90.7958 43.7954L91.9362 44.7797L92.8184 43.7534L94.0188 44.7797L93.0225 45.908V45.902Z" fill="#2D2766"/>
<path d="M95.6273 54.1425C95.5012 54.1425 95.3992 54.0404 95.3092 53.8424C95.2192 53.6443 95.1711 53.3982 95.1711 53.1162C95.1711 52.8341 95.2192 52.588 95.3092 52.3899C95.3992 52.1919 95.5072 52.0898 95.6273 52.0898H99.0363V54.1425H95.6273Z" fill="#2D2766"/>
<path d="M101.605 57.4075L100.465 56.4532L99.5824 57.4495L98.3821 56.4532L99.3784 55.3008L100.519 56.2851L101.401 55.2588L102.601 56.2851L101.605 57.4135V57.4075ZM99.0363 54.1425C98.9102 54.1425 98.8082 54.0405 98.7182 53.8424C98.6282 53.6443 98.5801 53.3983 98.5801 53.1162C98.5801 52.8341 98.6282 52.588 98.7182 52.39C98.8082 52.1919 98.9162 52.0899 99.0363 52.0899H99.2523C100.021 52.0899 100.531 51.9878 100.783 51.7898C101.035 51.5917 101.161 51.2976 101.161 50.9195V48.9209L102.871 48.7949V50.7335C102.871 51.1416 102.841 51.5137 102.787 51.8438C103.304 52.0058 103.922 52.0839 104.642 52.0839H104.726V54.1365H104.342C103.304 54.1365 102.487 53.9204 101.887 53.4823C101.353 53.9204 100.537 54.1365 99.4324 54.1365H99.0303L99.0363 54.1425Z" fill="#2D2766"/>
<path d="M104.726 54.1425C104.6 54.1425 104.498 54.0404 104.408 53.8424C104.318 53.6443 104.27 53.3982 104.27 53.1162C104.27 52.8341 104.318 52.588 104.408 52.3899C104.498 52.1919 104.606 52.0898 104.726 52.0898H108.135V54.1425H104.726Z" fill="#2D2766"/>
<path d="M117.012 54.1425C116.201 54.1425 115.589 53.9625 115.175 53.6024C114.521 53.9745 113.747 54.1605 112.864 54.1605C111.712 54.1605 110.758 53.9325 109.99 53.4763C109.515 53.9204 108.939 54.1485 108.255 54.1485H108.141C108.015 54.1485 107.913 54.0465 107.823 53.8484C107.733 53.6504 107.685 53.4043 107.685 53.1222C107.685 52.8401 107.733 52.594 107.823 52.396C107.913 52.1979 108.021 52.0959 108.141 52.0959H108.381C108.579 52.0959 108.759 52.0599 108.909 51.9879C109.059 51.9158 109.209 51.7838 109.353 51.5977C109.497 51.4057 109.605 51.2376 109.683 51.0936C109.761 50.9435 109.881 50.7095 110.05 50.3794C110.056 50.3614 110.068 50.3434 110.08 50.3254C110.092 50.3073 110.104 50.2773 110.122 50.2473C110.14 50.2173 110.152 50.1873 110.164 50.1633C110.536 49.4431 110.932 48.9029 111.352 48.5308C111.772 48.1587 112.348 47.9786 113.068 47.9786C114.383 47.9786 115.259 48.9029 115.709 50.7575C115.835 51.3097 115.985 51.6698 116.159 51.8438C116.333 52.0179 116.658 52.1019 117.12 52.1019H117.432V54.1545H117.018L117.012 54.1425ZM113.062 52.2759C113.555 52.2759 113.993 52.2039 114.377 52.0599C114.179 51.2316 113.987 50.6555 113.801 50.3193C113.615 49.9892 113.339 49.8212 112.966 49.8212C112.624 49.8212 112.33 49.9412 112.09 50.1813C111.85 50.4214 111.538 50.9135 111.154 51.6638L111.022 51.9218C111.634 52.1559 112.312 52.2759 113.062 52.2759Z" fill="#2D2766"/>
<path d="M117.432 54.1425C117.306 54.1425 117.204 54.0405 117.114 53.8424C117.024 53.6444 116.976 53.3983 116.976 53.1162C116.976 52.8341 117.024 52.588 117.114 52.39C117.204 52.1919 117.312 52.0899 117.432 52.0899H117.702C120.019 52.0899 121.687 51.9458 122.707 51.6638C122.737 51.4057 122.749 51.1716 122.749 50.9495C122.245 51.1116 121.675 51.1896 121.039 51.1896C119.316 51.1896 118.458 50.4154 118.458 48.8669C118.458 47.9246 118.728 47.1264 119.268 46.4662C119.808 45.806 120.475 45.4759 121.267 45.4759C122.143 45.4759 122.857 45.896 123.422 46.7363C123.98 47.5765 124.262 48.7469 124.262 50.2533C124.262 51.5197 124.136 52.498 123.878 53.1882C122.707 53.8244 120.679 54.1425 117.786 54.1425H117.432ZM122.353 44.8457L121.213 43.8914L120.331 44.8877L119.13 43.8914L120.127 42.739L121.267 43.7233L122.149 42.697L123.35 43.7233L122.353 44.8517V44.8457ZM121.711 49.6351C122.053 49.6351 122.377 49.5991 122.683 49.5331C122.587 48.7889 122.413 48.2127 122.161 47.7986C121.909 47.3845 121.585 47.1804 121.183 47.1804C120.781 47.1804 120.481 47.3244 120.277 47.6065C120.073 47.8946 119.971 48.2127 119.971 48.5608C119.971 49.275 120.553 49.6291 121.711 49.6291V49.6351Z" fill="#2D2766"/>
<path d="M125.564 57.1074C125.126 57.1074 124.682 57.0594 124.238 56.9634L124.394 55.2649C124.634 55.3009 124.88 55.3189 125.138 55.3189C126.044 55.3189 126.705 55.0368 127.119 54.4786C127.539 53.9205 127.749 53.2363 127.749 52.426C127.749 51.7418 127.557 50.7035 127.167 49.3171L128.865 48.8009C128.883 48.8969 128.919 49.059 128.979 49.2871C129.039 49.5151 129.075 49.6772 129.099 49.7672C129.123 49.8572 129.159 49.9893 129.207 50.1573C129.255 50.3254 129.297 50.4634 129.327 50.5654C129.363 50.6675 129.405 50.7755 129.453 50.9015C129.507 51.0276 129.561 51.1416 129.615 51.2436C129.892 51.8018 130.438 52.0839 131.254 52.0839H131.608V54.1365H131.092C130.306 54.1365 129.687 53.9445 129.255 53.5664C129.093 54.6407 128.703 55.4989 128.079 56.1411C127.455 56.7833 126.615 57.1014 125.564 57.1014V57.1074Z" fill="#2D2766"/>
<path d="M131.608 54.1425C131.482 54.1425 131.38 54.0405 131.29 53.8424C131.2 53.6444 131.152 53.3983 131.152 53.1162C131.152 52.8341 131.2 52.5881 131.29 52.39C131.38 52.1919 131.488 52.0899 131.608 52.0899H131.722C132.28 52.0899 132.797 52.0359 133.265 51.9339C133.301 51.3337 133.319 50.5654 133.319 49.6231C133.319 48.2607 133.307 46.3762 133.277 43.9634L135.101 43.8074C135.113 46.3101 135.113 48.1467 135.113 49.3291C135.113 50.4154 135.089 51.2557 135.047 51.8618C135.005 52.468 134.909 53.0022 134.753 53.4823C134.423 53.6624 133.967 53.8184 133.385 53.9505C132.803 54.0825 132.238 54.1485 131.686 54.1485H131.602L131.608 54.1425Z" fill="#2D2766"/>
<path d="M139.363 54.1425H137.55V43.9634L139.363 43.8074V54.1485V54.1425Z" fill="#2D2766"/>
<defs>
<linearGradient id="paint0_linear_79_1969" x1="179.143" y1="7.82641" x2="179.143" y2="49.2691" gradientUnits="userSpaceOnUse">
<stop stop-color="#00ABAF"/>
<stop offset="0.24" stop-color="#0093B4"/>
<stop offset="0.48" stop-color="#0080BA"/>
<stop offset="1" stop-color="#774896"/>
</linearGradient>
<linearGradient id="paint1_linear_79_1969" x1="173.171" y1="7.8264" x2="173.171" y2="49.2691" gradientUnits="userSpaceOnUse">
<stop stop-color="#00ABAF"/>
<stop offset="0.24" stop-color="#0093B4"/>
<stop offset="0.48" stop-color="#0080BA"/>
<stop offset="1" stop-color="#774896"/>
</linearGradient>
<linearGradient id="paint2_linear_79_1969" x1="180.949" y1="7.82638" x2="180.949" y2="49.269" gradientUnits="userSpaceOnUse">
<stop stop-color="#00ABAF"/>
<stop offset="0.24" stop-color="#0093B4"/>
<stop offset="0.48" stop-color="#0080BA"/>
<stop offset="1" stop-color="#774896"/>
</linearGradient>
<linearGradient id="paint3_linear_79_1969" x1="170.71" y1="7.82642" x2="170.71" y2="49.2691" gradientUnits="userSpaceOnUse">
<stop stop-color="#29B2B2"/>
<stop offset="0.27" stop-color="#1091B3"/>
<stop offset="0.48" stop-color="#017EB5"/>
<stop offset="1" stop-color="#704B98"/>
</linearGradient>
<linearGradient id="paint4_linear_79_1969" x1="160.477" y1="7.82638" x2="160.477" y2="49.269" gradientUnits="userSpaceOnUse">
<stop stop-color="#00ABAF"/>
<stop offset="0.24" stop-color="#0093B4"/>
<stop offset="0.48" stop-color="#0080BA"/>
<stop offset="1" stop-color="#774896"/>
</linearGradient>
<linearGradient id="paint5_linear_79_1969" x1="168.249" y1="7.8264" x2="168.249" y2="49.2691" gradientUnits="userSpaceOnUse">
<stop stop-color="#00ABAF"/>
<stop offset="0.24" stop-color="#0093B4"/>
<stop offset="0.48" stop-color="#0080BA"/>
<stop offset="1" stop-color="#774896"/>
</linearGradient>
<linearGradient id="paint6_linear_79_1969" x1="162.278" y1="7.82642" x2="162.278" y2="49.2691" gradientUnits="userSpaceOnUse">
<stop stop-color="#00ABAF"/>
<stop offset="0.24" stop-color="#0093B4"/>
<stop offset="0.48" stop-color="#0080BA"/>
<stop offset="1" stop-color="#774896"/>
</linearGradient>
</defs>
</svg>
