<svg width="12" height="12" viewBox="0 0 12 12" fill="none" xmlns="http://www.w3.org/2000/svg">
<path d="M3.9474 10.534C3.86647 10.5344 3.78629 10.5186 3.71155 10.4876C3.63681 10.4566 3.56902 10.4109 3.51216 10.3534C3.39682 10.2379 3.33203 10.0813 3.33203 9.91812C3.33203 9.75493 3.39682 9.59833 3.51216 9.48291L7.18297 5.81207L3.51216 2.14125C3.40337 2.0245 3.34413 1.87007 3.34695 1.71051C3.34976 1.55095 3.41441 1.39871 3.52725 1.28586C3.64009 1.17302 3.79233 1.10839 3.9519 1.10556C4.11146 1.10275 4.26588 1.16198 4.38264 1.27078L8.48869 5.37683C8.60403 5.49231 8.66885 5.64886 8.66885 5.81207C8.66885 5.97529 8.60403 6.13183 8.48869 6.24731L4.38264 10.3534C4.32578 10.4109 4.25799 10.4566 4.18324 10.4876C4.10851 10.5186 4.02832 10.5344 3.9474 10.534Z" fill="#24215A"/>
</svg>
