<svg width="11" height="12" viewBox="0 0 11 12" fill="none" xmlns="http://www.w3.org/2000/svg">
<path d="M7.5526 1.10658C7.63353 1.10619 7.71371 1.12198 7.78845 1.15302C7.86319 1.18406 7.93098 1.2297 7.98784 1.28722C8.10318 1.40272 8.16797 1.55931 8.16797 1.72251C8.16797 1.8857 8.10318 2.04229 7.98784 2.15771L4.31703 5.82855L7.98784 9.49937C8.09663 9.61612 8.15587 9.77055 8.15305 9.93012C8.15024 10.0897 8.08559 10.2419 7.97275 10.3548C7.85991 10.4676 7.70767 10.5322 7.5481 10.5351C7.38854 10.5379 7.23412 10.4786 7.11736 10.3698L3.01131 6.26379C2.89597 6.14832 2.83115 5.99177 2.83115 5.82855C2.83115 5.66534 2.89597 5.5088 3.01131 5.39331L7.11736 1.28722C7.17422 1.2297 7.24201 1.18406 7.31676 1.15302C7.39149 1.12198 7.47168 1.10619 7.5526 1.10658Z" fill="#C4CADA"/>
</svg>
